<svg xmlns="http://www.w3.org/2000/svg" viewBox="0 0 64 64" id="empty-cart"><path fill="#04c300" d="M57.00476,22.99946H19.97644v-9A5.00034,5.00034,0,0,0,15.8623,9.089a4,4,0,0,0-3.88586-3.08953h-6a4.00016,4.00016,0,0,0,.00012,8h5.99988a3.99231,3.99231,0,0,0,3.8183-2.87226,2.99485,2.99485,0,0,1,2.1817,2.87226v29a6.9913,6.9913,0,0,0,6.0769,6.93774,4.9864,4.9864,0,1,0,7.89752.06226H47.002a4.98725,4.98725,0,1,0,7.68475-.31995,6.949,6.949,0,0,0,4.79407-5.57459l2.43262-15.3164A5.021,5.021,0,0,0,57.00476,22.99946Zm-45.02832-11h-6a2,2,0,0,1,0-4h6A2.00013,2.00013,0,0,1,11.97644,11.99946Zm16,44a3.00019,3.00019,0,0,1,.00012-6A3.00019,3.00019,0,0,1,27.97644,55.99946Zm23,0a3.00019,3.00019,0,0,1,.00006-6A3.00019,3.00019,0,0,1,50.97644,55.99946Zm8.96142-27.5254L57.50525,43.79047a4.94751,4.94751,0,0,1-4.89356,4.209H24.93249a4.98384,4.98384,0,0,1-4.95605-5v-18H57.00476A3.00863,3.00863,0,0,1,59.93786,28.47406Z"></path><path fill="#04c300" d="M55.97644 30.99946h-5v-3a1 1 0 00-2 0v3h-8v-3a1 1 0 00-2 0v3h-8v-3a1 1 0 00-2 0v3h-5a1 1 0 100 2h5v5h-5a1 1 0 100 2h5v5a1 1 0 002 0v-5h8v5a1 1 0 002 0v-5h8v5a1 1 0 002 0v-5h4a1 1 0 000-2h-4v-5h5A1.0001 1.0001 0 0055.97644 30.99946zm-17 7h-8v-5h8zm10 0h-8v-5h8zM39.97644 18.42817a.99974.99974 0 001-1V12.99946a1 1 0 00-2 0v4.42871A.99974.99974 0 0039.97644 18.42817zM34.21032 19.27973a1.00013 1.00013 0 001.53223-1.28522L32.89587 14.602a1.00009 1.00009 0 00-1.53216 1.28516zM44.976 19.63715a.99641.99641 0 00.7666-.35742l2.84668-3.39258a1.00011 1.00011 0 00-1.53229-1.28509l-2.84662 3.39251A1.00669 1.00669 0 0044.976 19.63715z"></path></svg>