<svg xmlns="http://www.w3.org/2000/svg" viewBox="0 0 48 48" id="trolley"><path fill="#ccc" d="m10.1 11 1.8 9.4 1.3 6.5 1 4.9c-.6.2-1.1.5-1.5 1-.6.7-.9 1.5-.8 2.4.2 1.7 1.7 3 3.5 3h30.7v-2H15.2c-.8 0-1.4-.5-1.5-1.2 0-.3.1-.6.3-.9.3-.3.7-.5 1.2-.5h28.2l1.6-8.7 1.2-6.5.9-4.9-11.2-.7-8.3-.5-8.3-.5-7.2-.5-2-10.8H.9v2h7.5l1.7 8.5zm25.8 13.9h-6.3v-4.5h6.3v4.5zm-8.3 0h-6.3v-4.5h6.3v4.5zm-8.3 0h-4.5l-.9-4.5h5.4v4.5zm-3.2 6.7-.9-4.7h4.1v4.7h-3.2zm5.2 0v-4.7h6.3v4.7h-6.3zm8.3 0v-4.7h6.3v4.7h-6.3zm12.2 0h-3.9v-4.7h4.7l-.8 4.7zm-3.9-6.7v-4.5h5.9l-.8 4.5h-5.1zm6.3-6.5h-6.3v-3.5l6.9.5-.6 3zm-8.3 0h-6.3v-4.1l6.3.4v3.7zm-8.3 0h-6.3v-4.6l6.3.4v4.2zm-8.3-4.7v4.8h-5.8l-1-5.2 6.8.4zm5 29.7c0-2.2-1.8-4.1-4.1-4.1s-4.1 1.8-4.1 4.1 1.8 4.1 4.1 4.1 4.1-1.8 4.1-4.1zm-6.2 0c0-1.1.9-2.1 2.1-2.1 1.1 0 2.1.9 2.1 2.1 0 1.1-.9 2.1-2.1 2.1-1.1 0-2.1-.9-2.1-2.1zm24.2 0c0-2.2-1.8-4.1-4.1-4.1s-4.1 1.8-4.1 4.1 1.8 4.1 4.1 4.1 4.1-1.8 4.1-4.1zm-6.1 0c0-1.1.9-2.1 2.1-2.1s2.1.9 2.1 2.1c0 1.1-.9 2.1-2.1 2.1s-2.1-.9-2.1-2.1z"></path></svg>